<?xml version="1.0" encoding="utf-8"?>
<!-- Generator: Adobe Illustrator 25.0.1, SVG Export Plug-In . SVG Version: 6.00 Build 0)  -->
<svg version="1.0" id="katman_1" xmlns="http://www.w3.org/2000/svg" xmlns:xlink="http://www.w3.org/1999/xlink" x="0px" y="0px"
	 viewBox="0 0 560 400" style="enable-background:new 0 0 560 400;" xml:space="preserve">
<g>
	<path d="M160.4,238.2c0,18.1,4.8,38.4,13.3,55.1c15.4-14.4,55.9-60.1,60.6-65.4c7.1-8.1,10.1-2.9,13.9-7.5c2-2.5,3.2-3.4,4.1-3.9
		c1.5-0.9,3.1-3,3.9-3.6s2.7-3.1,4.2-4.4c1.5-1.2,4.4-3.1,7.3-5.6s7.9-8.3,13.3-8.3c6.4,0,9.1,4.4,9.7,4.9c0.5,0.5,4.4,4,5.1,4.7
		c0.7,0.8,4.9,4.1,7.2,4.1c2.3,0,4,2.5,5.2,3.7c2.7,2.5,14,14.3,17.6,16.8c1.7,1.1,3.2,0.9,4.5,1.9c1.3,0.9,1.9,1.5,2.6,1.8
		c0.7,0.2,3.1-0.4,5.9,3.1c1.3,0.9,1.7,1,1.7,1s3.8,3.5,5.2,5.9c1.2,2.1,29.7,39.9,39.9,53.4c9.5-17.1,14.9-36.8,14.9-57.8
		c0-66.3-53.7-120-120-120C214.1,118.3,160.4,172,160.4,238.2 M252.1,172.1c-2,4.4-3.4,7.6-5.2,11.8c-0.1,0.4-0.3,1.1,0.1,1.3
		c0.3,0.1,0.7,0.1,0.9,0c2.3-1.1,4.3-3.8,5.9-6.9l2.9-6.3h4l-1.1,2.4c-0.1,0.2-0.1,0.2,0,0.2c1.3-1,2.6-2.4,4.2-3.2
		c0.6-0.3,2.1-0.3,2,0.7c-0.1,0.9-0.8,1.6-1.2,2.5c-0.2,0.5-0.5,1.2-0.4,1.6c0.2,0.4,0.6,0.6,1.3,0.2c0.6-0.4,1.1-0.7,1.7-1.2
		c1-1,2.3-1.9,3.7-2.6c2.8-1.3,6.7-2.2,9.5-0.4c-2,4.4-3.4,7.7-5.3,11.9c-0.4,0.7-0.1,0.9,0.1,1.1c0.3,0.1,0.7,0.2,1.4-0.1
		c1.6-0.7,4.3-3.7,5.4-6.1c1-2.2,2-4.4,3.1-6.9h4.1l-1.1,2.4l0.2,0.1c1.1-1,4-3.3,6.1-2.8c1.2,0.2,1.8,1.6,1.7,2.7
		c1.3-1,2.7-2.1,4.7-2.6c2.9-0.7,4,1.3,3.1,3.2c-1.1,2.6-3.3,7.7-4.6,10.3c-0.1,0.3-0.1,0.9,0,1c0.3,0.2,0.9,0,1.1-0.2
		c1.4-1.2,2.2-2,3.3-3.5c0.3-2.8,1.8-5.3,3.9-7.4c2.2-2.4,5.6-4.3,9-3.2c1.1,0.4,1.9,1.6,2.3,2.7c0.1,0.6,0.3,0.9,0.3,1.7
		c1.8,1.3,4-0.8,5-2.4c0.2-0.7,0.6-1.3,0.7-1.8c1,0.1,3,0,4.1,0l-5.2,11.8c-0.3,0.7-0.4,1.1-0.4,1.6c0,0.4,0.5,0.5,1,0.4
		c1.4-0.2,3.7-3,4.9-5.4c1.3-2.9,2.6-5.3,3.9-8.3h4.2c-1.6,3.9-3.5,8.1-4.9,11.2c-0.3,0.6-0.7,1.3-0.5,2.1c0.2,0.4,0.7,0.3,1.1,0.2
		c1.8-1,4.9-4.5,6-6.6c1.1-2.5,2-4.4,3.1-6.9h4.3l-1,2.4c1.6-1.3,3.3-2.6,5.4-2.9c1-0.1,2.1-0.1,2.7,0.9c0.6,1.1,0.2,2.3-0.2,3.3
		c-1.2,2.7-2.5,5.6-3.7,8.2c-0.2,0.6-0.3,1.2,0.2,1.5c0.6,0.4,3.6-1.4,5.1-4.7c1.3-2.9,2.2-4.6,3.4-7.5h-2.2l0.6-1.3h2.2l3.1-6.8
		h4.2l-3,6.8h3.2l-0.6,1.3h-3.2c-1.8,3.8-3.3,7.1-4.9,10.7c-0.6,1.2-1.3,3.3-0.9,4.6c0.2,0.7,1.1,0.9,1.9,0.6
		c2.4-0.8,4.1-2.9,5.5-5.1c0.1-0.2,1.3-0.1,1.2,0.1c-1.7,3.3-5.3,6.6-8.8,6.5c-1,0-2.2-0.6-2.8-1.5c-0.3-0.5-0.5-0.8-0.6-1.4
		c-0.2-0.9-0.2-1.9,0-2.8c-1.9,1.4-3.7,3.2-6.1,3.6c-1,0.2-2.3-0.2-2.6-1.4c-0.2-0.9-0.1-1.8,0.3-2.6c1.5-3.2,2.8-6.2,4.2-9.5
		c0.1-0.2,0-0.8-0.2-0.8c-0.2-0.2-0.9-0.2-1.6,0.2c-2.9,2.2-4.4,5.1-5.7,8c-0.9,2-1.8,4-2.8,5.9h-4.2c0.5-1.2,1.2-2.8,1.8-4
		c0-0.1-0.1-0.1-0.1,0c-1.7,1.7-4,3.6-6.1,4.2c-0.9,0.2-1.8-0.1-2.2-0.9c-0.5-0.8-0.6-2-0.2-3c0,0,0,0-0.1,0c-1.6,1.6-3.1,3-5.2,3.7
		c-2.4,0.8-4.5-0.9-3-4.4c0.4-0.9,1.6-3.5,2.9-6.7c-1.1,0.5-2.4,0.5-3.1,0.2c0,0-0.1,0-0.1,0.1c-0.9,4.4-3.5,8.4-7.6,10.3
		c-2,1-4.2,1.2-6.1-0.2c-1-0.6-1.5-2.1-1.6-3.4c-2,2-4.3,4.6-7.5,4.2c-0.5-0.1-0.9-0.5-1.1-0.9c-0.7-1.2-0.3-2.5,0.2-3.5
		c1.5-3.1,2.7-6.1,4.2-9.6c0.2-0.5-0.4-0.9-0.9-0.6c-1.5,0.7-2.4,1.4-3.2,2.7c-0.5,0.7-0.9,1.5-1.3,2.2c-1.4,3-2.9,6.2-4.1,9.2h-4.3
		c1.9-4.3,3.7-8.5,5.6-12.7c0.2-0.4,0.1-0.9-0.1-1.1c-0.4-0.2-1,0.2-1.5,0.4c-1,0.7-1.9,1.6-2.6,2.9c-0.7,1.1-1.3,2.4-1.9,3.6
		l-3.2,7H278c0.4-0.9,1.2-2.7,1.7-3.6c0-0.1-0.1-0.2-0.1-0.1c-2.3,1.8-5.2,4.3-7.3,3.9c-0.7,0-1.3-0.7-1.5-1.3
		c-0.2-0.8-0.1-1.5,0.1-2.2c0-0.1-0.1-0.1-0.2,0c-1.8,1.7-3.5,3.1-5.7,3.7c-1.4,0.3-2.6-0.6-3-1.5c-0.6-1.1-0.7-2.8,0.2-4.8
		c0.6-1.3,1.2-2.6,2-3.7c-0.5,0.2-1.4,0.3-2,0.2c-0.5-0.1-1.1-0.5-1.4-0.9s-0.4-1.1-0.4-1.5c0.1-0.1-0.2-0.1-0.3,0
		c-1.3,1-1.8,2.2-2.4,3.5l-3.6,8.2h-4.3l1.6-3.5c0.1,0,0-0.1-0.1,0c-2.2,1.9-4.9,4.2-7,3.8c-0.6-0.1-1.3-0.7-1.4-1.4
		c-0.2-0.7-0.1-1.5,0-2.2h-0.2c-1.7,1.7-3.4,3.2-5.6,3.6c-1.3,0.4-2.5-0.4-3-1.5c-0.6-1.6-0.4-3.3,0.2-4.8c1.7-4.3,4.6-7.3,8.8-9.6
		C245.3,171.2,249.3,170.8,252.1,172.1 M221.7,153.5c12.3,0.6,19.5,6.6,19.5,13c0,11.5-18.3,13.5-18.3,13.5
		c-3.2,16-15.9,22.1-24.6,22c-11.8-0.1-11.6-9.7-11.2-10.9c0.5-1.4,1.2-2.7,2.7-2.7c1.4,0,2.7,1.2,2.7,2.7c0,0.9-0.4,1.8-1.2,2.2
		c-1.5,1-1.2,2.1-1.2,2.1c0,5.1,6.5,5.5,8.3,5.5c17.5,0,15.5-28.9,31-38.7c0.7-0.5,1.3,0,0.8,0.5c-4.8,6-6.6,15.8-6.6,15.8
		c7.5,0,12.4-7.1,12.4-12c0-8.5-7.6-12-14.1-12c-18,0-25.9,12.6-25.9,19.5s4.3,9.4,7.5,9.4c4.4,0,5.7-2.9,5.2-4.4
		c-0.9-2.3,0.3-4.1,1.7-4.1c0.5,0,2.4-0.1,2.4,3.1c0,3-4.4,6.1-9.1,6.1c-4.8,0-11.6-2.6-11.6-10.1
		C191.8,158.8,210.6,152.9,221.7,153.5 M239,185.6c1.6,0,3.8-2.8,5.1-5.3c1.2-2.7,1.9-4.1,3.5-7.5c0-0.2-0.1-0.2-0.1-0.2
		c-1.9,0-3.9,1.8-5.2,3.3c-1.5,1.8-3.9,5.3-4.4,7.8C237.7,185,238.3,185.6,239,185.6 M307.2,188c1.8,0.9,3.9-3,5.8-6.5
		c1.9-3.6,3.4-8,1.8-8.5c-1.8-0.7-4.1,2.7-6,6.3C307,182.8,305.5,187.2,307.2,188 M267.3,185.6c1.5,0,3.8-2.8,5-5.3
		c1.3-2.7,1.9-4.1,3.5-7.5c0.1-0.2-0.1-0.2-0.2-0.2c-1.8,0-3.8,1.8-5.1,3.3c-1.5,1.8-3.9,5.3-4.3,7.8
		C265.9,185,266.5,185.6,267.3,185.6 M251.2,242.6c0.4-0.9,1.7-3.6,1.6-4.6c0-0.2-0.5-0.5-0.9-0.1c-1.9,1.8-5.6,8.4-7.1,9.2
		c-3.3,1.6-4.7,5.4-5.6,6.9c-0.7,1.1-1.6,2.9-3.1,5.1c-1.4,2-2.9,4.9-3.5,5.9c-0.6,1.1-0.8,2,0.3,2c1.1,0,0.2,1.7-1.1,3.6
		c-0.7,1.1-2.5,6.3-3,7.8c-0.7,1.8-0.6,4-0.8,4.8c-0.3,0.8-3.7,8-4.6,9.7c-0.5,1-0.4,1.4-0.6,2c-0.3,0.7,0.1,0.9,0.6,0.4
		c0.6-0.6,4.3-6.2,5.4-6.9c1.1-0.7,2.1-1.7,2.3-4.1s1.7-3.1,2.9-4.5c1.2-1.4,2.8-3.3,3.7-5.2c0.8-2,1.8-0.5,3.7-3.5
		c1.8-3,6-10.5,7-11.9c0.9-1.4,0.3-3.5,0.1-5.2c-0.1-0.9,0.1-3.1,0.6-5.5C249.7,246.1,250.7,243.9,251.2,242.6 M366,283.4
		c0.3-0.3-0.5-1.2-0.9-1.9c-0.4-0.7-3-3.6-3.5-4.4c-0.4-0.8-3.8-5.5-5-7.1c-2.1-2.7-0.1-3.7-1.2-5.3c-0.5-0.7-3.1-3.9-6.3-7.1
		c-1.6-1.6-3.4-3.2-4.9-4.5c-2.5-2.2-4.3-3.8-4.6-3.5c-0.4,0.4,1,2.2,1.7,3c0.6,0.8,1.6,2.2,2.9,3.7c2.2,2.5,0.2,4.4,2.2,6.4
		c0.4,0.3,5.9,6.6,7.3,7.7c2,1.8,9.3,10.4,9.8,10.9C364.3,282,365.8,283.8,366,283.4 M333,271.1c2,3.3,2.6,2.7,3.4,2.7
		c1.9,0.1,6.1,4.6,6.9,5.8c0.8,1.3,7.6,8,9.4,9.7c0.8,0.7,6.1,9.4,6.8,8.8c0.8-0.6-2.1-4.9-2.5-5.8s-2-2.3-2.7-4.3
		c-0.7-1.9-3.9-6.8-5-8.4c-1-1.6-2.7-5-4.5-7.2c-1.7-1.9-0.4-2.5-2.1-4.1c-1.1-1-4.4-3.9-5.1-4.5s-3.4-3-4.9-4.4
		c-1.5-1.3-5.2-3.8-5.1-5.5c0-1.7-0.8-4.9-2-5.9c-0.9-0.7-3.5-5-6.5-7.4c-1.5-1.3-4.8-4.6-7.2-7.6c-2.4-2.8-4.1-5.3-4.7-5
		c-0.8,0.5,2.7,5.4,3.1,6s4.4,7.6,4.8,9.4c0.4,1.9,8,14.6,9.6,18.6C325.6,264.4,330.8,267.5,333,271.1 M286.7,235.5
		c0.7,2,3.1,13.5,3.8,15.9c0.7,2.4,1.5,2.5,1.9,3.4c1.5,3.6,3.5,3.7,4.5,4c3,0.9,3.2,4.9,5.1,8.4c1.7,3.3,3.4,6.3,5,9.9
		s9.5,23.3,10.9,26.3c0.5,1.1,4.2,1.1,3.8,0c-1-2.1-3.2-7.6-4.5-13c-0.9-3.5,2.4-1,0.3-6.7c-1-2.6-2.8-5.1-3.8-6.2
		c-1.1-1-2.1-5.5-2.9-7.5c-0.8-1.9-0.4-2-2.2-6.7c-1.3-3.4,2.4-2.3,0.3-7.5c-1.4-3.4-8.2-15.9-8.9-17.1c-0.4-0.7-1.7-2.8-3.3-5.4
		c-1.5-2.4-2.8-5-3.5-6.1c-1.4-2.3-4.1-7.3-5.5-9.3c-1.5-2.1-3.3-6.7-4.1-5.9c-0.7,0.7,2.2,7.5,3.4,11.9c1.3,4.3,0.3,6.1-0.4,7.4
		C286,232.5,286,233.3,286.7,235.5 M285.8,111l6.1-3.6l5.3,4.7l-1.6-7l6.1-3.7l-7.1-0.7l-1.4-6.9l-2.8,6.4l-7.1-0.7l5.3,4.8
		L285.8,111z M398.1,191.5l5.8,4.1l-2.2,6.7l5.8-4.2l5.9,4.1l-2.2-6.8l5.6-4.1l-7,0.1l-2.3-6.8l-2.3,6.8L398.1,191.5z M415.4,210
		l-3.6,6.2l-7-1.4l4.9,5.2l-3.4,6.2l6.5-3.1l5,5.2l-0.9-7.1l6.4-2.9l-6.9-1.3L415.4,210z M223.7,253.2c-0.6-0.4-7.3,6.4-11.7,11.2
		c-1.5,1.7-2.6,3.2-3.2,4c0,0-1.9,3.2-3,4.6c-1,1.3-3.7,5.2-4.8,6.8c-0.4,0.6-1.4,2.9-3.4,5.5c-1,1.2-2,2.9-4,5.4
		c-2.6,3.3-4.6,6.1-4.1,6.4c0.3,0.2,4.1-4.4,8.2-9.4c1.7-2.1,3.6-4.2,5.1-6.3c0.8-1,2.5-2.6,3.1-3.4c1-1.5,2.1-2.6,2.5-3
		c2.3-1.9,3.6-2,4.3-3c0.4-0.5,4.9-7.4,6.5-10.1C220.9,259.2,224.6,254,223.7,253.2 M399.2,297.9l1.4,7.1l3.1-6.4l6.9,1l-5.1-4.8
		l3.1-6.4l-6.4,3.3l-5.2-5l1.3,7l-6.2,3.3L399.2,297.9z M413,273.8l7-0.4l-5.8-3.8l1.8-6.9l-5.6,4.5l-6-4l2.6,6.6l-5.5,4.5l7.2-0.4
		l2.7,6.6L413,273.8z M417.8,243.5l0.5-7.1l-4.7,5.5l-6.7-2.7l3.8,5.9l-4.6,5.5l6.9-1.8l3.9,6l0.5-7.1l6.8-1.7L417.8,243.5z
		 M309.9,114.5l6.7-2.4l4.2,5.7l-0.2-7.2l6.8-2.5l-6.8-2.1l-0.1-7l-4,5.8l-6.8-2l4.3,5.8L309.9,114.5z M393.5,172.8l-0.9,7l4.9-5.3
		l6.5,2.9l-3.5-6.3l4.8-5.1l-6.9,1.4l-3.5-6.2l-0.9,7.2l-7,1.3L393.5,172.8z M339.9,121.5l3.1,6.3l1.2-7l7.1-1.1l-6.3-3.3l1.2-6.9
		l-5,4.9l-6.3-3.3l3.1,6.5l-5.1,5L339.9,121.5z M372.1,150.8l6.9,1.6l0.5,7.1l3.8-6.1l7,1.6l-4.6-5.4l3.7-5.9l-6.5,2.6l-4.6-5.4
		l0.5,7.2L372.1,150.8z M360.9,135.1l1.9,6.8l2.5-6.7l7.2,0.2l-5.6-4.5l2.5-6.5l-5.9,3.8l-5.5-4.4l1.8,7l-6,3.9L360.9,135.1z
		 M155.2,178.5l6.6-2.9l4.8,5.4l-0.8-7l6.5-2.9l-7-1.4l-0.9-7.1l-3.5,6.2l-6.8-1.5l4.7,5.2L155.2,178.5z M147.2,275.1l1.7,6.9
		l2.8-6.7l7.2,0.5l-5.5-4.5l2.7-6.6l-6.1,3.8l-5.6-4.5l1.8,6.9l-5.9,3.7L147.2,275.1z M237.8,118.2l4.3-5.6l6.7,2.4l-4.1-5.9
		l4.3-5.7l-6.9,2l-3.9-5.8l-0.2,7l-6.8,2l6.8,2.5L237.8,118.2z M214.6,121.3l1.1,7.1l3.2-6.4l7,1.1l-5.1-5.1l3.2-6.5l-6.4,3.3
		l-4.9-4.9l1.2,6.8l-6.4,3.3L214.6,121.3z M193.7,136l2.5,6.8l1.9-6.9l7.1-0.2l-6-4l1.9-7l-5.6,4.4l-5.8-3.9l2.4,6.6l-5.5,4.4
		L193.7,136z M159.9,306.1l1.4-7.1l7.1-0.9l-6.2-3.4l1.4-6.9l-5.2,4.9l-6.3-3.3l3.1,6.5l-5.1,4.7l6.9-0.9L159.9,306.1z M261.5,112.2
		l5.3-4.7l6.1,3.7l-2.9-6.6l5.3-4.8l-7.1,0.6l-2.7-6.4l-1.6,6.8l-7,0.7l6.1,3.7L261.5,112.2z M175.8,154.2l3.7,6.1l0.5-7l6.9-1.6
		l-6.6-2.7l0.5-7.1l-4.6,5.4l-6.4-2.8l3.6,6l-4.6,5.4L175.8,154.2z M146.1,203.3l5.9-4.1l5.7,4.3l-2.2-6.7l5.9-4.1l-7.2-0.1
		l-2.2-6.8l-2.3,6.8l-7-0.2l5.6,4.2L146.1,203.3z M141.9,229.6l5.1-5.2l6.4,3.2l-3.4-6.2l4.9-5.1l-7.1,1.3l-3.5-6.3l-0.9,7l-6.9,1.2
		l6.3,3L141.9,229.6z M142.9,256.1l4-6l6.9,1.9l-4.5-5.5l3.9-5.9l-6.7,2.6l-4.6-5.5l0.4,7.1l-6.5,2.5l6.7,1.8L142.9,256.1z"/>
</g>
</svg>
